# xmcd CD database file
#
# Track frame offsets:
#	150
#	13397
#	29640
#	46110
#	60140
#	73995
#	90348
#	107691
#	125907
#	140604
#	158067
#	170461
#	189923
#	206459
#	219175
#	232180
#	249179
#	267034
#	279311
#	296977
#	307776
#
# Disc length: 4260 seconds
#
# Revision: 0
# Processed by: cddbd v1.4PL0 Copyright (c) Steve Scherf et al.
# Submitted via: CDex 1.50beta9
#
DISCID=2a10a215
DTITLE=Country Club - Best Of Nashville and New Country CD1/2
DYEAR=2002
DGENRE=Country
TTITLE0=Dwight Yoakam/What do You Know About Love
TTITLE1=Patty Loveless/Blame It On Your Heart
TTITLE2=Alan Jackson/Here In The Real World
TTITLE3=Vince Gill/Don't Come Cryin' To Me
TTITLE4=The Derailers/More Of Your Love
TTITLE5=Brad Paisley/Part Two
TTITLE6=Dixie Chicks/Hello Mr. Heartache
TTITLE7=Lonestar/Amazed
TTITLE8=Brooks and Dunn/Honky Tonk Truth
TTITLE9=Kenny Chesney/You Had Me From Hello
TTITLE10=Danni Leigh/If The Jukebox Took Teardrops
TTITLE11=Tracy Byrd/Keeper Of The Stars
TTITLE12=Mark Chesnutt/Too Cold At Home
TTITLE13=Clint Black/Summer's Comin'
TTITLE14=Pam/ Tillis/Mi Vida Loca (My Crazy Life)
TTITLE15=Aaron Tippin/Whole Lotta Love On The Line
TTITLE16=Michelle Wright/Take It Like A Man
TTITLE17=Restless Heart/You Can Depend On Me
TTITLE18=Sara Evans/The Great Unknown
TTITLE19=Diamond Rio/Unbelievable
TTITLE20=Martina McBride/My Baby Loves Me
EXTD=YEAR: 2002
EXTT0=
EXTT1=
EXTT2=
EXTT3=
EXTT4=
EXTT5=
EXTT6=
EXTT7=
EXTT8=
EXTT9=
EXTT10=
EXTT11=
EXTT12=
EXTT13=
EXTT14=
EXTT15=
EXTT16=
EXTT17=
EXTT18=
EXTT19=
EXTT20=
PLAYORDER=
